<?xml version="1.0" standalone="no"?>
<!DOCTYPE svg PUBLIC "-//W3C//DTD SVG 20010904//EN"
 "http://www.w3.org/TR/2001/REC-SVG-20010904/DTD/svg10.dtd">
<svg version="1.0" xmlns="http://www.w3.org/2000/svg"
 width="512.000000pt" height="512.000000pt" viewBox="0 0 512.000000 512.000000"
 preserveAspectRatio="xMidYMid meet">
<metadata>
Created by potrace 1.11, written by Peter Selinger 2001-2013
</metadata>
<g transform="translate(0.000000,512.000000) scale(0.100000,-0.100000)"
fill="#000000" stroke="none">
<path d="M2520 5053 c-25 -32 -83 -98 -128 -146 -46 -48 -81 -93 -79 -100 132
-303 204 -648 212 -1022 6 -223 6 -223 -55 5 -98 366 -247 684 -357 765 l-26
19 -36 -44 c-20 -24 -66 -79 -103 -121 l-68 -77 108 -109 c60 -59 139 -151
176 -203 90 -126 189 -329 220 -450 44 -171 43 -221 -2 -142 -71 126 -290 385
-436 514 -96 85 -222 178 -240 178 -6 0 -24 -18 -39 -40 -16 -22 -65 -79 -109
-125 -44 -47 -79 -87 -77 -89 2 -2 56 -29 119 -59 385 -186 640 -402 809 -687
l51 -85 -38 -19 c-54 -28 -97 -62 -112 -91 -8 -14 -25 -28 -39 -31 -70 -16
-129 -70 -173 -156 l-13 -28 -85 51 c-285 169 -501 424 -687 809 -30 63 -57
117 -59 119 -2 2 -43 -34 -91 -79 -48 -45 -105 -94 -125 -109 -21 -14 -38 -30
-38 -34 0 -5 14 -29 32 -55 131 -194 441 -488 650 -618 27 -16 48 -32 48 -37
0 -10 -68 1 -180 29 -119 30 -323 129 -445 215 -49 35 -141 115 -203 176
l-114 113 -91 -79 c-51 -44 -105 -90 -121 -103 -38 -32 -28 -50 61 -117 130
-98 361 -198 643 -277 290 -81 275 -72 117 -73 -335 -2 -767 80 -1040 198 -27
12 -50 21 -53 21 -2 0 -34 -28 -71 -61 -38 -34 -103 -89 -145 -122 -43 -33
-78 -63 -78 -67 0 -4 26 -27 57 -51 32 -24 97 -81 145 -127 l87 -84 88 35
c293 116 679 188 1008 186 157 -1 159 1 -65 -59 -299 -80 -558 -189 -693 -291
-89 -67 -99 -85 -61 -117 16 -13 70 -59 121 -103 l91 -79 114 113 c62 61 154
141 203 176 172 121 420 225 583 244 52 6 53 -3 4 -31 -126 -71 -385 -290
-514 -436 -85 -96 -178 -222 -178 -240 0 -6 17 -23 38 -37 20 -15 77 -64 125
-109 48 -45 89 -81 91 -79 2 2 29 56 59 119 186 385 402 640 687 809 l85 51
22 -45 c29 -57 82 -110 127 -126 28 -10 36 -19 41 -48 14 -76 66 -137 157
-183 l28 -13 -51 -85 c-169 -285 -424 -502 -809 -687 -63 -30 -117 -57 -119
-59 -2 -2 34 -43 79 -91 45 -48 94 -105 109 -125 14 -21 30 -38 34 -38 5 0 29
14 55 32 187 126 467 418 598 622 27 42 52 76 56 76 16 0 -23 -181 -59 -280
-73 -195 -201 -389 -365 -553 l-108 -108 79 -92 c44 -51 90 -105 103 -121 32
-38 50 -28 117 61 98 130 198 361 277 643 80 287 74 282 69 60 -7 -343 -71
-676 -182 -953 l-35 -87 60 -65 c34 -35 89 -101 123 -145 34 -44 65 -80 69
-80 4 0 26 24 48 54 23 30 80 95 128 145 l86 91 -35 87 c-117 295 -192 708
-185 1018 l3 130 34 -130 c76 -294 174 -553 263 -696 48 -76 118 -159 134
-159 6 0 56 54 112 120 l101 119 -107 108 c-59 59 -138 151 -176 203 -90 125
-189 328 -220 450 -43 170 -43 221 1 143 73 -130 287 -383 435 -513 98 -87
224 -180 242 -180 6 0 23 17 37 38 15 20 64 77 109 125 45 48 81 89 79 91 -2
2 -56 29 -119 59 -385 185 -640 402 -809 687 l-51 85 28 13 c91 46 143 107
157 182 5 29 15 40 51 59 46 25 78 61 110 123 l19 38 85 -51 c285 -169 501
-424 687 -809 30 -63 57 -117 59 -119 2 -2 43 34 91 79 48 45 105 94 125 109
21 14 38 30 38 34 0 5 -14 29 -32 55 -126 187 -418 467 -622 598 -42 27 -76
52 -76 56 0 10 78 -2 180 -28 234 -61 532 -250 707 -449 l51 -58 93 81 c52 44
107 91 123 104 38 32 28 50 -61 117 -130 98 -361 198 -643 277 -85 24 -177 50
-205 58 l-50 14 131 1 c331 3 728 -70 1017 -186 l87 -35 65 60 c35 34 101 89
145 123 44 34 80 65 80 69 0 4 -26 27 -57 51 -32 24 -97 81 -145 127 l-87 84
-93 -37 c-166 -65 -230 -84 -433 -124 -199 -40 -403 -61 -572 -60 -158 1 -173
-8 117 73 282 79 513 179 643 277 89 67 99 85 61 117 -16 13 -70 59 -120 102
l-92 79 -114 -112 c-62 -62 -154 -141 -203 -176 -122 -86 -326 -185 -445 -215
-170 -43 -221 -43 -142 1 128 73 383 289 514 437 85 96 178 222 178 240 0 6
-17 23 -38 37 -20 15 -77 64 -125 109 -48 45 -89 81 -91 79 -2 -2 -29 -56 -59
-119 -186 -385 -402 -640 -687 -809 l-85 -51 -13 28 c-42 83 -117 152 -165
152 -8 0 -25 15 -36 34 -20 32 -67 69 -123 98 l-28 13 51 85 c169 285 424 501
809 687 63 30 117 57 119 59 2 2 -34 43 -79 91 -45 48 -94 105 -109 125 -14
21 -30 38 -36 38 -5 0 -50 -30 -100 -67 -178 -131 -433 -404 -551 -587 -27
-42 -52 -76 -56 -76 -10 0 2 77 28 180 30 119 129 323 215 445 35 49 114 141
176 203 l112 114 -79 92 c-43 50 -89 104 -103 120 l-24 30 -27 -20 c-109 -80
-258 -399 -356 -764 -60 -224 -58 -222 -59 -67 -2 311 72 726 175 985 20 48
38 92 40 99 3 6 -21 40 -53 75 -32 35 -87 100 -122 146 -36 45 -67 82 -70 82
-4 0 -26 -26 -51 -57z"/>
</g>
</svg>
